<svg width="20" height="20" viewBox="0 0 20 20" fill="none" xmlns="http://www.w3.org/2000/svg">
<path d="M17.4174 1.66602H2.58276C2.33962 1.66602 2.10645 1.7626 1.93452 1.93452C1.7626 2.10645 1.66602 2.33962 1.66602 2.58276V17.4174C1.66602 17.5378 1.68973 17.657 1.7358 17.7682C1.78187 17.8794 1.8494 17.9805 1.93452 18.0656C2.01965 18.1507 2.12071 18.2183 2.23194 18.2643C2.34316 18.3104 2.46237 18.3341 2.58276 18.3341H10.5668V11.8752H8.39993V9.37501H10.5668V7.49985C10.5219 7.05961 10.5739 6.61488 10.7191 6.19685C10.8642 5.77882 11.0991 5.39762 11.4072 5.07998C11.7153 4.76234 12.0892 4.51596 12.5026 4.35811C12.916 4.20026 13.359 4.13477 13.8004 4.16623C14.449 4.16224 15.0974 4.19563 15.7422 4.26624V6.51643H14.4171C13.367 6.51643 13.167 7.01647 13.167 7.74154V9.35001H15.6672L15.3422 11.8502H13.167V18.3341H17.4174C17.5378 18.3341 17.657 18.3104 17.7682 18.2643C17.8794 18.2183 17.9805 18.1507 18.0656 18.0656C18.1507 17.9805 18.2183 17.8794 18.2643 17.7682C18.3104 17.657 18.3341 17.5378 18.3341 17.4174V2.58276C18.3341 2.46237 18.3104 2.34316 18.2643 2.23194C18.2183 2.12071 18.1507 2.01965 18.0656 1.93452C17.9805 1.8494 17.8794 1.78187 17.7682 1.7358C17.657 1.68973 17.5378 1.66602 17.4174 1.66602V1.66602Z" fill="#1A5AFF"/>
</svg>
