<svg width="20" height="20" viewBox="0 0 20 20" fill="none" xmlns="http://www.w3.org/2000/svg">
<path d="M11.0286 0.00195312C12.1536 0.00495313 12.7246 0.0109531 13.2176 0.0249531L13.4116 0.0319531C13.6356 0.0399531 13.8566 0.0499531 14.1236 0.0619531C15.1876 0.111953 15.9136 0.279953 16.5506 0.526953C17.2106 0.780953 17.7666 1.12495 18.3226 1.67995C18.8311 2.17985 19.2245 2.78454 19.4756 3.45195C19.7226 4.08895 19.8906 4.81495 19.9406 5.87995C19.9526 6.14595 19.9626 6.36695 19.9706 6.59195L19.9766 6.78595C19.9916 7.27795 19.9976 7.84895 19.9996 8.97395L20.0006 9.71995V11.03C20.003 11.7594 19.9954 12.4888 19.9776 13.218L19.9716 13.412C19.9636 13.637 19.9536 13.858 19.9416 14.124C19.8916 15.189 19.7216 15.914 19.4756 16.552C19.2253 17.2197 18.8317 17.8246 18.3226 18.324C17.8225 18.8323 17.2179 19.2257 16.5506 19.477C15.9136 19.724 15.1876 19.892 14.1236 19.942C13.8863 19.9531 13.649 19.9631 13.4116 19.972L13.2176 19.978C12.7246 19.992 12.1536 19.999 11.0286 20.001L10.2826 20.002H8.97358C8.24384 20.0045 7.5141 19.9968 6.78458 19.979L6.59058 19.973C6.35319 19.964 6.11585 19.9536 5.87858 19.942C4.81458 19.892 4.08858 19.724 3.45058 19.477C2.78325 19.2263 2.17879 18.8328 1.67958 18.324C1.17062 17.8242 0.776801 17.2195 0.525577 16.552C0.278577 15.915 0.110577 15.189 0.0605769 14.124C0.0494358 13.8867 0.0394357 13.6493 0.030577 13.412L0.0255771 13.218C0.00714914 12.4888 -0.00118508 11.7594 0.000577001 11.03V8.97395C-0.00221397 8.24455 0.00512015 7.51515 0.0225771 6.78595L0.029577 6.59195C0.037577 6.36695 0.047577 6.14595 0.059577 5.87995C0.109577 4.81495 0.277577 4.08995 0.524577 3.45195C0.775691 2.78386 1.1703 2.17898 1.68058 1.67995C2.17967 1.17143 2.78372 0.77794 3.45058 0.526953C4.08858 0.279953 4.81358 0.111953 5.87858 0.0619531C6.14458 0.0499531 6.36658 0.0399531 6.59058 0.0319531L6.78458 0.0259531C7.51377 0.00818583 8.24317 0.000518427 8.97258 0.00295305L11.0286 0.00195312ZM10.0006 5.00195C8.67449 5.00195 7.40273 5.52874 6.46504 6.46642C5.52736 7.4041 5.00058 8.67587 5.00058 10.002C5.00058 11.328 5.52736 12.5998 6.46504 13.5375C7.40273 14.4752 8.67449 15.002 10.0006 15.002C11.3267 15.002 12.5984 14.4752 13.5361 13.5375C14.4738 12.5998 15.0006 11.328 15.0006 10.002C15.0006 8.67587 14.4738 7.4041 13.5361 6.46642C12.5984 5.52874 11.3267 5.00195 10.0006 5.00195ZM10.0006 7.00195C10.3945 7.00189 10.7847 7.07942 11.1487 7.23012C11.5127 7.38083 11.8434 7.60175 12.122 7.88028C12.4007 8.15881 12.6217 8.48949 12.7725 8.85344C12.9233 9.21739 13.001 9.60749 13.0011 10.0015C13.0011 10.3954 12.9236 10.7855 12.7729 11.1495C12.6222 11.5135 12.4013 11.8443 12.1228 12.1229C11.8442 12.4015 11.5135 12.6226 11.1496 12.7734C10.7856 12.9242 10.3955 13.0019 10.0016 13.002C9.20593 13.002 8.44287 12.6859 7.88026 12.1233C7.31765 11.5607 7.00158 10.7976 7.00158 10.002C7.00158 9.2063 7.31765 8.44324 7.88026 7.88063C8.44287 7.31802 9.20593 7.00195 10.0016 7.00195M15.2516 3.50195C14.9201 3.50195 14.6021 3.63365 14.3677 3.86807C14.1333 4.10249 14.0016 4.42043 14.0016 4.75195C14.0016 5.08347 14.1333 5.40142 14.3677 5.63584C14.6021 5.87026 14.9201 6.00195 15.2516 6.00195C15.5831 6.00195 15.901 5.87026 16.1355 5.63584C16.3699 5.40142 16.5016 5.08347 16.5016 4.75195C16.5016 4.42043 16.3699 4.10249 16.1355 3.86807C15.901 3.63365 15.5831 3.50195 15.2516 3.50195Z" fill="#0A77FF"/>
</svg>
