<svg xmlns="http://www.w3.org/2000/svg" width="19" height="18" fill="none">
  <g clip-path="url(#a)" opacity=".8">
    <path fill="#0A77FF" d="M9.125 0a8.999 8.999 0 1 0 0 17.998A8.999 8.999 0 0 0 9.125 0Z" />
    <path fill="#fff"
      d="M4.2 8.905a437.848 437.848 0 0 1 5.247-2.26c2.5-1.04 3.02-1.22 3.358-1.227a.593.593 0 0 1 .35.105c.09.074.114.174.127.244.011.07.027.23.014.354-.135 1.423-.721 4.876-1.02 6.47-.124.675-.373.901-.614.923-.523.048-.92-.345-1.426-.677-.792-.52-1.239-.843-2.008-1.35-.889-.585-.312-.907.194-1.433.132-.137 2.436-2.232 2.48-2.422.005-.024.01-.112-.043-.159-.052-.047-.13-.03-.185-.018-.08.018-1.345.854-3.797 2.51-.359.246-.684.366-.976.36-.32-.007-.94-.182-1.4-.331-.562-.184-1.01-.28-.971-.592.02-.162.243-.328.67-.497Z" />
  </g>
  <defs>
    <clipPath id="a">
      <path fill="#fff" d="M.125 0h18v18h-18z" />
    </clipPath>
  </defs>
</svg>